<svg xmlns="http://www.w3.org/2000/svg" xmlns:xlink="http://www.w3.org/1999/xlink" width="412" height="870" viewBox="0 0 412 870">
  <defs>
    <clipPath id="clip-Pantalla_de_inicio">
      <rect width="412" height="870"/>
    </clipPath>
  </defs>
  <g id="Pantalla_de_inicio" data-name="Pantalla de inicio" clip-path="url(#clip-Pantalla_de_inicio)">
    <rect width="412" height="870" fill="#771073"/>
    <text id="Regístrate_aquí" data-name="Regístrate aquí" transform="translate(206 699)" fill="#fbf6f6" font-size="20" font-family="SegoeUI, Segoe UI"><tspan x="-65.84" y="0">Regístrate </tspan><tspan y="0" fill="#f20f45" text-decoration="underline">aquí</tspan></text>
    <rect id="Rectángulo_3" data-name="Rectángulo 3" width="208" height="63" rx="31.5" transform="translate(102 515)" fill="#fff" opacity="0.55"/>
    <g id="Boton" transform="translate(137 524)">
      <text id="INGRESAR" transform="translate(69 32)" fill="#fff" font-size="30" font-family="SegoeUI, Segoe UI"><tspan x="-68.679" y="0">INGRESAR</tspan></text>
    </g>
    <text id="_Aún_no_tienes_una_cuenta_" data-name="¿Aún no tienes una cuenta?" transform="translate(206 648)" fill="#fbf6f6" font-size="20" font-family="SegoeUI, Segoe UI"><tspan x="-121.431" y="0">¿Aún no tienes una cuenta?</tspan></text>
    <path id="Unión_1" data-name="Unión 1" d="M271.5,96.5v-50h332v50Zm85.74-68.251a7.783,7.783,0,0,1-1.985-5.574,8.111,8.111,0,0,1,2.065-5.9,7.427,7.427,0,0,1,5.581-2.124,6.727,6.727,0,0,1,5.237,2.065,8.19,8.19,0,0,1,1.882,5.728,8.057,8.057,0,0,1-2.029,5.749,7.107,7.107,0,0,1-5.441,2.161A6.958,6.958,0,0,1,357.241,28.249Zm1.823-10a6.468,6.468,0,0,0-1.347,4.343,6.117,6.117,0,0,0,1.362,4.2,4.631,4.631,0,0,0,3.648,1.538,4.39,4.39,0,0,0,3.581-1.509,6.544,6.544,0,0,0,1.253-4.291,6.657,6.657,0,0,0-1.253-4.336,4.37,4.37,0,0,0-3.581-1.524A4.568,4.568,0,0,0,359.064,18.245ZM323.475,29.165a4.114,4.114,0,0,1-1.267-3.15q0-4.2,4.952-4.892l4.5-.63q0-3.823-3.091-3.823a7.386,7.386,0,0,0-4.892,1.846V16.055a9.294,9.294,0,0,1,5.1-1.407q5.288,0,5.288,5.6V30h-2.4V27.656H331.6a5.029,5.029,0,0,1-4.614,2.7A4.931,4.931,0,0,1,323.475,29.165Zm4.563-6.255a5.869,5.869,0,0,0-2.519.827,2.386,2.386,0,0,0-.85,2.1,2.289,2.289,0,0,0,.784,1.795,3.028,3.028,0,0,0,2.087.7,3.856,3.856,0,0,0,2.952-1.253,4.475,4.475,0,0,0,1.164-3.172V22.412Zm-22.017,1.055V15h2.388v8.583q0,4.747,3.633,4.747a3.673,3.673,0,0,0,2.893-1.3,4.959,4.959,0,0,0,1.136-3.39V15h2.4V30h-2.4V27.627h-.059a4.935,4.935,0,0,1-4.63,2.724Q306.022,30.352,306.022,23.965Zm-13.315,5.493V26.88a7.112,7.112,0,0,0,4.322,1.45q3.164,0,3.164-2.11a1.827,1.827,0,0,0-.272-1.018,2.705,2.705,0,0,0-.732-.74,5.644,5.644,0,0,0-1.085-.579q-.622-.256-1.34-.535a17.351,17.351,0,0,1-1.751-.8,5.3,5.3,0,0,1-1.26-.908,3.378,3.378,0,0,1-.761-1.15,4.063,4.063,0,0,1-.257-1.508,3.582,3.582,0,0,1,.483-1.868,4.287,4.287,0,0,1,1.289-1.363,6.01,6.01,0,0,1,1.839-.828,8.158,8.158,0,0,1,2.131-.278,8.609,8.609,0,0,1,3.487.674v2.432a6.8,6.8,0,0,0-3.809-1.085,4.453,4.453,0,0,0-1.216.154,2.978,2.978,0,0,0-.93.432,2,2,0,0,0-.6.667,1.758,1.758,0,0,0-.212.857,2.057,2.057,0,0,0,.212.981,2.169,2.169,0,0,0,.623.7,4.781,4.781,0,0,0,1,.556q.586.25,1.333.542a18.609,18.609,0,0,1,1.787.784,6.117,6.117,0,0,1,1.347.908,3.556,3.556,0,0,1,.857,1.165,3.748,3.748,0,0,1,.3,1.568,3.7,3.7,0,0,1-.49,1.933,4.21,4.21,0,0,1-1.311,1.363,6.014,6.014,0,0,1-1.89.806,9.342,9.342,0,0,1-2.241.264A8.512,8.512,0,0,1,292.706,29.458Zm-19.643-7.617V8.994h2.461V21.68q0,6.46,5.449,6.459,5.26,0,5.259-6.24V8.994h2.461V21.5q0,8.848-7.984,8.848Q273.063,30.352,273.063,21.841ZM349.016,30V15h2.4V30Zm-10.43,0V15h2.4v3.091h.059a5.245,5.245,0,0,1,1.568-2.469,3.575,3.575,0,0,1,2.358-.886,3.915,3.915,0,0,1,1.436.205v2.489a2.936,2.936,0,0,0-1.816-.483,3.064,3.064,0,0,0-2.57,1.451,6.7,6.7,0,0,0-1.033,3.955V30Zm10.561-19.247a1.485,1.485,0,0,1-.454-1.113,1.539,1.539,0,0,1,1.553-1.568,1.552,1.552,0,0,1,1.12.447,1.563,1.563,0,0,1,0,2.219,1.6,1.6,0,0,1-2.219.015Z" transform="translate(-232 275)" fill="#fff" stroke="#707070" stroke-width="1"/>
    <path id="Unión_2" data-name="Unión 2" d="M271.5,90.5v-50h332v50ZM408.146,29.165a4.111,4.111,0,0,1-1.267-3.15q0-4.2,4.951-4.892l4.5-.63q0-3.823-3.092-3.823a7.386,7.386,0,0,0-4.892,1.846V16.055a9.3,9.3,0,0,1,5.1-1.407q5.288,0,5.288,5.6V30h-2.4V27.656h-.059a5.029,5.029,0,0,1-4.614,2.7A4.928,4.928,0,0,1,408.146,29.165Zm4.563-6.255a5.874,5.874,0,0,0-2.52.827,2.389,2.389,0,0,0-.85,2.1,2.289,2.289,0,0,0,.784,1.795,3.028,3.028,0,0,0,2.087.7,3.856,3.856,0,0,0,2.952-1.253,4.476,4.476,0,0,0,1.165-3.172V22.412Zm-36.592,5.4a8.36,8.36,0,0,1-1.816-5.749,8.2,8.2,0,0,1,1.985-5.705,6.365,6.365,0,0,1,4.929-2.205,5.639,5.639,0,0,1,4.556,1.9,7.943,7.943,0,0,1,1.611,5.288V23.1h-10.59a5.607,5.607,0,0,0,1.347,3.867,4.647,4.647,0,0,0,3.545,1.363,7.373,7.373,0,0,0,4.658-1.67v2.256a8.71,8.71,0,0,1-5.23,1.435A6.339,6.339,0,0,1,376.117,28.308Zm2.168-10.422a5.518,5.518,0,0,0-1.465,3.179h8.1a4.89,4.89,0,0,0-1-3.237,3.42,3.42,0,0,0-2.747-1.157A3.88,3.88,0,0,0,378.285,17.886Zm-16.6,11.572V26.88a7.112,7.112,0,0,0,4.322,1.45q3.163,0,3.163-2.11A1.827,1.827,0,0,0,368.9,25.2a2.709,2.709,0,0,0-.733-.74,5.635,5.635,0,0,0-1.084-.579q-.622-.256-1.34-.535a17.258,17.258,0,0,1-1.751-.8,5.278,5.278,0,0,1-1.26-.908,3.367,3.367,0,0,1-.762-1.15,4.083,4.083,0,0,1-.256-1.508,3.582,3.582,0,0,1,.483-1.868,4.278,4.278,0,0,1,1.289-1.363,6.01,6.01,0,0,1,1.839-.828,8.158,8.158,0,0,1,2.131-.278,8.612,8.612,0,0,1,3.487.674v2.432a6.8,6.8,0,0,0-3.809-1.085,4.448,4.448,0,0,0-1.216.154,2.983,2.983,0,0,0-.931.432,1.994,1.994,0,0,0-.6.667,1.758,1.758,0,0,0-.212.857,2.057,2.057,0,0,0,.212.981,2.159,2.159,0,0,0,.623.7,4.758,4.758,0,0,0,1,.556q.586.25,1.333.542a18.689,18.689,0,0,1,1.786.784,6.145,6.145,0,0,1,1.348.908,3.569,3.569,0,0,1,.857,1.165,3.762,3.762,0,0,1,.3,1.568,3.692,3.692,0,0,1-.491,1.933,4.207,4.207,0,0,1-1.31,1.363,6.014,6.014,0,0,1-1.89.806,9.342,9.342,0,0,1-2.241.264A8.51,8.51,0,0,1,361.688,29.458Zm-14.2-.292a4.114,4.114,0,0,1-1.266-3.15q0-4.2,4.951-4.892l4.5-.63q0-3.823-3.091-3.823a7.386,7.386,0,0,0-4.892,1.846V16.055a9.3,9.3,0,0,1,5.1-1.407q5.288,0,5.288,5.6V30h-2.4V27.656h-.059a5.03,5.03,0,0,1-4.614,2.7A4.932,4.932,0,0,1,347.486,29.165Zm4.563-6.255a5.869,5.869,0,0,0-2.519.827,2.389,2.389,0,0,0-.85,2.1,2.289,2.289,0,0,0,.784,1.795,3.028,3.028,0,0,0,2.087.7,3.856,3.856,0,0,0,2.952-1.253,4.476,4.476,0,0,0,1.165-3.172V22.412Zm-58.909,5.339a7.786,7.786,0,0,1-1.984-5.574,8.111,8.111,0,0,1,2.065-5.9,7.427,7.427,0,0,1,5.581-2.124,6.729,6.729,0,0,1,5.237,2.065,8.19,8.19,0,0,1,1.882,5.728,8.057,8.057,0,0,1-2.029,5.749,7.107,7.107,0,0,1-5.442,2.161A6.959,6.959,0,0,1,293.141,28.249Zm1.824-10a6.463,6.463,0,0,0-1.348,4.343,6.117,6.117,0,0,0,1.363,4.2,4.631,4.631,0,0,0,3.648,1.538,4.391,4.391,0,0,0,3.581-1.509,6.544,6.544,0,0,0,1.253-4.291,6.657,6.657,0,0,0-1.253-4.336,4.371,4.371,0,0,0-3.581-1.524A4.567,4.567,0,0,0,294.965,18.245Zm-19.717,9.221a10.652,10.652,0,0,1-2.7-7.573,11.159,11.159,0,0,1,3.033-8.145,10.291,10.291,0,0,1,7.69-3.105,12.335,12.335,0,0,1,4.952.864v2.623a10.034,10.034,0,0,0-4.981-1.26,7.645,7.645,0,0,0-5.867,2.417,9.109,9.109,0,0,0-2.248,6.46,8.659,8.659,0,0,0,2.1,6.115,7.149,7.149,0,0,0,5.514,2.278,10.355,10.355,0,0,0,5.479-1.406v2.388a12.329,12.329,0,0,1-5.8,1.23A9.357,9.357,0,0,1,275.248,27.466Zm52.266-1.538V17.051h-2.578V15h2.578V11.338l2.4-.777V15h3.78v2.05h-3.78V25.5a3.5,3.5,0,0,0,.513,2.153,2.044,2.044,0,0,0,1.7.644,2.527,2.527,0,0,0,1.568-.5v2.051a4.639,4.639,0,0,1-2.242.468Q327.513,30.322,327.514,25.928ZM401.063,30V21.445q0-4.775-3.487-4.775a3.782,3.782,0,0,0-2.981,1.355,5.022,5.022,0,0,0-1.179,3.42V30h-2.4V15h2.4v2.49h.058a5.415,5.415,0,0,1,4.922-2.842,4.59,4.59,0,0,1,3.765,1.589,7.083,7.083,0,0,1,1.3,4.593V30ZM336.9,30V15h2.4v3.091h.059a5.245,5.245,0,0,1,1.568-2.469,3.575,3.575,0,0,1,2.358-.886,3.918,3.918,0,0,1,1.436.205v2.489a2.936,2.936,0,0,0-1.816-.483,3.064,3.064,0,0,0-2.57,1.451,6.7,6.7,0,0,0-1.033,3.955V30Zm-17.095,0V21.445q0-4.775-3.487-4.775a3.781,3.781,0,0,0-2.981,1.355,5.022,5.022,0,0,0-1.179,3.42V30h-2.4V15h2.4v2.49h.059a5.414,5.414,0,0,1,4.922-2.842,4.59,4.59,0,0,1,3.765,1.589,7.083,7.083,0,0,1,1.3,4.593V30Zm72.686-17.607a4.111,4.111,0,0,1,.7-2.513,2.307,2.307,0,0,1,1.963-.945,4.289,4.289,0,0,1,2.182.762,3.833,3.833,0,0,0,1.875.644q1.231,0,1.23-1.7h1.436a4.188,4.188,0,0,1-.7,2.512,2.227,2.227,0,0,1-1.9.975,4.917,4.917,0,0,1-2.372-.762,4.028,4.028,0,0,0-1.743-.63q-1.289,0-1.289,1.656Z" transform="translate(-232 398)" fill="#fff" stroke="#707070" stroke-width="1"/>
    <text id="PUNTOS_INSEGUROS" data-name="PUNTOS INSEGUROS" transform="translate(206 52)" fill="#fbf6f6" font-size="30" font-family="SegoeUI, Segoe UI"><tspan x="-139.944" y="0">PUNTOS INSEGUROS</tspan></text>
  </g>
</svg>
