<?xml version="1.0" encoding="UTF-8"?>
<!DOCTYPE svg PUBLIC "-//W3C//DTD SVG 1.1//EN" "http://www.w3.org/Graphics/SVG/1.1/DTD/svg11.dtd">
<!-- Creator: CorelDRAW 2019 (64-Bit) -->
<svg xmlns="http://www.w3.org/2000/svg" xml:space="preserve" width="66mm" height="66mm" version="1.1" style="shape-rendering:geometricPrecision; text-rendering:geometricPrecision; image-rendering:optimizeQuality; fill-rule:evenodd; clip-rule:evenodd"
viewBox="0 0 6600 6600"
 xmlns:xlink="http://www.w3.org/1999/xlink">
 <defs>
  <style type="text/css">
   <![CDATA[
    .str0 {stroke:#373435;stroke-width:20;stroke-miterlimit:22.9256}
    .str1 {stroke:#9D9EA3;stroke-width:20;stroke-miterlimit:22.9256}
    .fil4 {fill:none}
    .fil1 {fill:#FEFEFE}
    .fil8 {fill:#373435}
    .fil7 {fill:#373435}
    .fil5 {fill:#5B5DA7}
    .fil6 {fill:#3B4A9C}
    .fil9 {fill:#9D3133;fill-rule:nonzero}
    .fil0 {fill:url(#id0)}
    .fil2 {fill:url(#id1)}
    .fil3 {fill:url(#id2)}
   ]]>
  </style>
  <linearGradient id="id0" gradientUnits="userSpaceOnUse" x1="601.22" y1="4271.85" x2="5947.03" y2="4271.85">
   <stop offset="0" style="stop-opacity:1; stop-color:#ED3239"/>
   <stop offset="0.611765" style="stop-opacity:1; stop-color:#F5989B"/>
   <stop offset="1" style="stop-opacity:1; stop-color:#FEFEFE"/>
  </linearGradient>
  <linearGradient id="id1" gradientUnits="userSpaceOnUse" x1="1255.36" y1="4248.45" x2="5292.9" y2="4248.45">
   <stop offset="0" style="stop-opacity:1; stop-color:#EB4F54"/>
   <stop offset="1" style="stop-opacity:1; stop-color:#FEFEFE"/>
  </linearGradient>
  <linearGradient id="id2" gradientUnits="userSpaceOnUse" x1="1504.31" y1="4104.13" x2="5118.38" y2="4104.13">
   <stop offset="0" style="stop-opacity:1; stop-color:#F1686D"/>
   <stop offset="1" style="stop-opacity:1; stop-color:#FEFEFE"/>
  </linearGradient>
 </defs>
 <g id="Layer_x0020_1">
  <metadata id="CorelCorpID_0Corel-Layer"/>
  <g id="_1994273708560">
   <ellipse class="fil0" cx="3274.13" cy="4271.85" rx="2672.91" ry="977.14"/>
   <g>
    <path class="fil1 str0" d="M1463.92 3068.84c-51.64,-237.3 184.41,-357.84 611.16,-400.96l9.29 1136.88c-489.49,38.51 -664.92,178.01 -610.9,403.42l-9.55 -1139.34z"/>
    <ellipse class="fil2" cx="3274.13" cy="4248.45" rx="2018.77" ry="718.37"/>
    <ellipse class="fil3" cx="3311.35" cy="4104.13" rx="1807.03" ry="574.05"/>
    <polygon class="fil1 str0" points="2078.58,3811.69 2070.98,2666.9 4905.8,3341.29 4905.8,4484.26 "/>
    <path class="fil4 str0" d="M1463.59 4208.69l2831.31 679c458.03,-38.05 664.06,-174.03 620.46,-407.06l-2834.83 -674.38c-437.6,23.39 -661.1,157.57 -616.94,402.44z"/>
    <path class="fil5 str1" d="M4285.35 3748.34c433.77,-43.73 685.52,-161.21 620.45,-407.05l0 1142.97c79.31,242.87 -164.17,362.08 -610.9,403.43l-9.55 -1139.35z"/>
    <ellipse class="fil4 str0" cx="2152.53" cy="2958.59" rx="300.08" ry="109.68"/>
    <ellipse class="fil4 str0" cx="2152.53" cy="2958.59" rx="300.08" ry="109.68"/>
    <ellipse class="fil4 str0" cx="4208.31" cy="3452.14" rx="300.08" ry="109.68"/>
    <polygon class="fil5 str1" points="1461.64,4214.13 1454.03,3069.34 4288.86,3743.73 4288.86,4886.71 "/>
    <path class="fil6 str1" d="M1454.03 3069.34l2831.32 679c458.02,-38.04 664.05,-174.02 620.45,-407.05l-2834.82 -674.39c-449.37,49.97 -647.88,174.24 -616.95,402.44z"/>
    <ellipse class="fil7 str0" cx="4207.81" cy="3473.66" rx="273.43" ry="88.15"/>
    <path class="fil4 str0" d="M2439.4 4249.94l508.95 120.34 -58.78 -445.93c140.39,-9.23 203.07,-68.35 161.36,-194.48 -84.99,-164.91 -195.69,-198.09 -340.88,-81.71 -100.54,71.38 -109.31,149.67 19.25,238.29l-289.9 363.49z"/>
    <path class="fil7 str0" d="M2439.39 4249.94l228.97 -53.23 266.35 70.01 -45.14 -342.38c212.1,-31.26 252.38,-129.92 60.6,-319.58 -92.13,-63.56 -191.27,-0.08 -240.12,43.4 -108.88,96.9 -100.92,161.31 19.25,238.3l-289.91 363.48z"/>
    <path class="fil8" d="M1861.42 2408.48l7.49 525.15c0.89,62.12 142.04,122.18 209.17,109.1 79.53,10.19 266.19,-63.69 269.25,-114.46l28.27 -469.61c1.09,-1081.7 1764.92,-1314.89 1787.46,-76.99 0.08,4.34 -6.94,479.41 -6.11,483.74 139.39,129.37 298.83,164.94 497.33,14.9 -0.43,-3.32 33.5,-513.43 33.07,-516.71 -242.67,-1847.17 -2906.82,-1424.45 -2825.93,44.88z"/>
    <polygon class="fil1 str0" points="4436.92,2650.86 4173.58,2588.32 4173.47,2725.49 "/>
    <polygon class="fil1 str0" points="4434.98,2458.85 4171.64,2396.3 4171.54,2533.47 "/>
    <path class="fil7 str0" d="M1816.18 2952.13c148.25,184.33 353.61,190.36 559.53,13.9 12.88,-40.17 10.05,-57.87 -17.13,-62.7l-3.27 32.6c-161.66,122.24 -348.03,159.05 -490.17,17.42l-6.11 -39.11c-25.95,-13.69 -39.8,11.16 -42.85,37.89z"/>
   </g>
   <g>
    <path class="fil9" d="M187.32 5307.17l542.04 -413.75 228.61 192 -542.04 413.76 -228.61 -192.01zm928.29 634.11l-204.75 -116.59 5.62 -228.69 -133.38 150.16 -269.87 -153.66 434.03 -488.66 193.01 109.91 -4.41 246.33 146.78 -165.26 270.4 153.98 -437.43 492.48zm992.71 -251.05l-172.48 144.95c-19.06,-71.06 -60.55,-118.03 -124.35,-141.13 -35.4,-12.82 -59.33,-8.52 -71.41,12.87 -3.79,6.72 -2.01,15.61 5.26,26.48 7.21,11 30.37,32.48 69.49,64.46 42.89,35.39 74.6,64.82 95.03,88.56 20.64,23.66 31.98,48.51 34.15,74.62 2.17,26.1 -4.61,53.08 -20.4,81.07 -32.99,58.42 -85.95,92.95 -158.67,103.58 -72.88,10.56 -163.01,-3.67 -270.61,-42.62 -120.72,-43.7 -216.94,-95.01 -288.87,-154.16l176.97 -155.83c6.25,34.49 20.96,65.42 43.8,92.68 22.84,27.25 48.8,46.07 78.11,56.67 14.19,5.15 27.9,6.57 41.05,4.13 13,-2.52 22.02,-8.08 26.85,-16.63 4.55,-8.06 4.24,-17.6 -0.93,-28.31 -5.25,-10.88 -24.34,-30.14 -57.09,-57.75 -29.86,-24.94 -53.51,-47.18 -71.04,-66.92 -17.52,-19.74 -29.38,-43.03 -35.34,-69.91 -6.11,-26.94 -0.17,-56 17.49,-87.28 34.22,-60.61 87.5,-96.38 160.14,-107.17 72.49,-10.86 162.52,3.2 270.13,42.15 98.44,35.63 182.66,80.84 252.72,135.49zm455.83 537.54l-51.32 144.75 -597.95 -135.94 204.56 -576.83 597.94 135.95 -51.33 144.76 -279.4 -63.53 -25.34 71.47 194.48 44.22 -51.33 144.75 -194.49 -44.21 -25.2 71.08 279.38 63.53zm855.34 -324.22l-176.58 170.01c-64.04,-29.58 -124.45,-46.18 -180.91,-49.62 -37.41,-2.28 -68.21,3.65 -92.4,17.92 -24.2,14.13 -37.51,34.03 -39.94,59.57 -4.61,48.54 33,75.3 112.5,80.15l8.89 -93.61 330.86 20.16 -30.64 322.42c-134.34,-2.14 -225.15,-4.71 -272.41,-7.58 -182.72,-11.13 -306.7,-49.89 -371.93,-116.4 -65.09,-66.51 -93.78,-141.16 -85.91,-223.94 5.42,-56.97 26.9,-108.12 64.49,-153.71 37.58,-45.46 88.86,-79.47 153.79,-101.73 65.12,-22.26 140.18,-30.87 225.69,-25.67 59.96,3.65 121.59,14.4 184.39,32.36 62.98,17.82 119.74,41.05 170.11,69.67zm736.67 -153.38l42.82 269.82c18.67,117.62 -5.35,206.71 -72.08,267.18 -66.74,60.32 -148.29,95.39 -244.67,105.2 -69.79,7.1 -138.4,-0.65 -205.83,-23.4 -67.43,-22.75 -117.53,-56.59 -150.38,-101.78 -32.98,-45.03 -55.54,-106.28 -67.82,-183.71l-40.98 -258.11 329.18 -33.5 43.75 275.67c4.69,29.54 10.83,47.97 18.53,55.04 7.72,7.19 18.14,10.04 31.1,8.72 18.11,-1.83 28.62,-10.07 31.21,-24.67 2.56,-14.72 1.27,-38.8 -4.05,-72.32l-39.79 -250.65 329.01 -33.49zm2.66 -3.94l455.01 -143.65c78.84,-24.89 148.72,-28.5 209.42,-10.89 60.7,17.59 102.68,50.18 126.2,97.97 25.94,52.65 19.72,102.19 -18.48,148.56 108.95,45.04 197.69,119.96 266.23,224.75l-320.07 101.04c-40.42,-68.55 -79.12,-116.44 -116.28,-143.63 -37.09,-27.08 -77.49,-33.79 -120.95,-20.07l101.67 206.5 -308.07 97.26 -274.68 -557.84zm364.58 17.52l52.91 107.43 8.72 -2.75c55.3,-17.46 74.51,-43.55 57.37,-78.38 -7.25,-14.72 -19.19,-25.79 -35.97,-33.19 -16.68,-7.56 -38.15,-7.27 -64.33,0.99l-18.7 5.9zm1072.67 103.62c-90.12,46.26 -186.8,60.19 -289.9,41.74 -103.11,-18.45 -183.86,-64.14 -242.07,-136.86 -58.12,-72.59 -75.99,-150.09 -53.78,-232.69 22.29,-82.49 78.57,-146.91 168.67,-193.15 90.25,-46.32 186.98,-60.44 289.91,-42.22 103.01,18.33 183.49,63.7 241.62,136.29 58.21,72.72 76.34,150.55 54.23,233.26 -22.13,82.72 -78.44,147.32 -168.68,193.63zm-262.14 -327.43c-17.91,9.19 -28.88,21.83 -32.69,37.96 -3.8,16.13 0.4,31.82 12.61,47.06 12.1,15.13 28.15,24.73 48.05,28.7 19.89,3.97 38.82,1.26 56.72,-7.93 18.06,-9.26 29.17,-21.97 32.96,-38.1 3.79,-16.13 -0.4,-31.81 -12.51,-46.94 -12.21,-15.25 -28.26,-24.86 -48.14,-28.82 -19.88,-3.97 -38.96,-1.2 -57,8.07zm623.8 -679.85l103.08 182.39c-89.43,-12.52 -159.37,0.66 -210.04,39.33 -28.13,21.48 -32.14,40.85 -11.9,57.84 6.35,5.33 17.3,7.35 32.63,6.03 15.44,-1.22 48.99,-10.34 100.69,-27.38 57.06,-18.56 103.04,-31.04 138.19,-37.31 35.13,-6.43 68.17,-5.52 99.19,2.66 31.03,8.19 59.72,23.35 86.19,45.58 55.24,46.4 75.36,98.66 60.37,156.62 -15.12,58.06 -65.41,119.61 -150.88,184.85 -95.89,73.19 -191.39,125.35 -286.87,156.54l-113.99 -189.82c42.27,8.31 83.6,9 123.74,2.27 40.12,-6.72 71.63,-18.92 94.92,-36.7 11.28,-8.61 18.08,-18.24 20.17,-28.93 1.97,-10.58 -1.08,-19.37 -9.18,-26.16 -7.62,-6.4 -18.78,-9.75 -33.1,-9.92 -14.58,-0.19 -44.04,6.74 -88.29,20.69 -40.07,12.8 -74.71,22.01 -104.14,27.61 -29.42,5.59 -60.82,5.66 -94.17,0 -33.49,-5.57 -64.91,-20.88 -94.49,-45.74 -57.32,-48.14 -78.73,-101.1 -63.98,-159.07 14.65,-57.86 64.7,-119.42 150.17,-184.67 78.19,-59.68 162.13,-105.23 251.69,-136.71z"/>
    <path class="fil9" d="M654.82 1100l372.19 -208.06c78.57,-43.92 152.9,-61.75 222.86,-53.43 69.84,8.4 125.4,36.05 166.44,83.12 40.08,45.97 54.08,96.21 42.21,150.78 -11.88,54.56 -46,97.67 -102.31,129.14 -46.97,26.26 -106.13,38.07 -177.75,35.58l176.71 202.67 -271.66 151.86 -428.69 -491.66zm364.38 -45.53l93.3 107.01c9.39,-2.81 17.72,-6.16 24.72,-10.06 20.32,-11.37 32.3,-25.75 36.02,-43.04 3.63,-17.4 -1.84,-34.45 -16.53,-51.29 -14.37,-16.49 -31.14,-26.58 -50.2,-30.16 -18.95,-3.47 -38.56,0.29 -58.34,11.35l-28.97 16.19zm1232.36 -594.05l101.99 259.44c44.46,113.09 40.59,204.19 -11.67,273.18 -52.3,68.86 -124.78,114.97 -217.45,138.32 -67.1,16.92 -136.34,19.04 -207.73,6.25 -71.41,-12.8 -128.23,-38.97 -170.57,-78.78 -42.45,-39.63 -78.24,-96.7 -107.51,-171.15l-97.56 -248.18 316.51 -79.78 104.21 265.07c11.16,28.4 21.28,45.68 30.43,51.53 9.19,5.97 20.09,7.31 32.55,4.17 17.41,-4.39 25.92,-13.99 25.24,-28.72 -0.76,-14.86 -7.36,-38.36 -20.03,-70.6l-94.76 -241.02 316.35 -79.73zm1098.81 495.68l-250.51 15.21 -178.36 -178.68 17.4 183.75 -330.2 20.05 -56.62 -597.92 236.17 -14.33 193.35 191.62 -19.15 -202.2 330.86 -20.09 57.06 602.59zm149 -329.41l45.54 -263.17 659.18 73.12 -45.54 263.17 -165.26 -18.33 -57.23 330.78 -328.67 -36.45 57.24 -330.79 -165.26 -18.33zm1005.17 532.96c-100,-30.56 -171.45,-84.54 -214.17,-161.92 -42.73,-77.35 -44.81,-156.51 -6.35,-237.2 38.4,-80.57 105.63,-138.13 201.8,-172.9 96.11,-34.66 194.26,-36.68 294.26,-6.13 100.15,30.6 171.8,84.51 214.66,161.63 42.79,77.24 45.04,156.02 6.64,236.58 -38.46,80.7 -105.87,138.62 -202.1,173.52 -96.24,34.91 -194.59,37.02 -294.74,6.42zm173.19 -363.38c-19.89,-6.07 -39.1,-5.62 -57.57,1.5 -18.45,7.14 -31.72,19.16 -39.78,36.08 -8,16.8 -8.11,32.83 -0.29,48 7.84,15.18 21.8,25.75 41.68,31.83 20.02,6.12 39.4,5.72 57.85,-1.42 18.46,-7.14 31.72,-19.16 39.73,-35.94 8.06,-16.92 8.17,-32.97 0.35,-48.13 -7.84,-15.17 -21.95,-25.8 -41.97,-31.92zm1215.7 344.04l-203.7 116.12c-1.87,-72.68 -31.48,-125.11 -88.63,-157.47 -31.73,-17.97 -56.24,-17.39 -73.18,1.78 -5.32,6.02 -5.67,15.02 -1.1,26.79 4.46,11.9 22.11,36.52 52.94,73.85 33.72,41.27 57.87,75 72.31,101.4 14.66,26.36 19.89,52.5 15.84,78.46 -4.06,25.95 -17.11,51.4 -39.26,76.49 -46.23,52.34 -106.42,78.21 -180.33,77.58 -74.06,-0.7 -159.18,-28.37 -255.59,-82.97 -108.16,-61.25 -190.47,-126.25 -247.07,-195.27l210.68 -126.1c-2.03,34.82 5.08,67.43 21.04,97.66 15.97,30.23 37,52.65 63.26,67.52 12.72,7.2 25.85,10.69 39.33,10.28 13.35,-0.49 23.53,-4.58 30.3,-12.24 6.38,-7.23 8.34,-16.63 5.8,-27.94 -2.58,-11.48 -16.75,-33.29 -42.37,-65.37 -23.39,-29.03 -41.34,-54.46 -53.88,-76.51 -12.53,-22.04 -18.64,-46.71 -18.12,-74 0.38,-27.38 13.09,-55.01 37.85,-83.04 47.97,-54.31 108.77,-81.33 182.64,-80.89 73.74,0.37 158.81,27.85 255.23,82.44 88.2,49.95 160.17,107.13 216.01,171.43z"/>
   </g>
  </g>
 </g>
</svg>
